<?xml version="1.0" encoding="UTF-8"?>
<svg id="_图层_1" data-name="图层_1" xmlns="http://www.w3.org/2000/svg" version="1.1" viewBox="0 0 881 829.44">
  <!-- Generator: Adobe Illustrator 29.0.0, SVG Export Plug-In . SVG Version: 2.1.0 Build 186)  -->
  <defs>
    <style>
      .st0 {
        fill: #004c60;
      }
    </style>
  </defs>
  <path class="st0" d="M704.64,754.66c21.69-2.33,45.34-15.85,56.77,10.73,6.32,14.7,5.69,26.95-6.76,37.79-22.46,19.55-71.64,19.79-99.22,13.19-5.16-1.23-18.02-4.98-22.11-7.64-5.88-3.81,1.94-34.56,3.82-41.07,7.35-25.45,19.85-49.74,27.76-75.24,24.53-79.08,24.65-150.85-2.25-229.29-11.03-32.16-38.22-82.55-31.76-115.72,7.26-37.27,59.39-61.5,91.07-74.93,23.12-9.8,70.25-21.81,86.2-38.8,25.21-26.86,5.64-81.18-7.66-110.38-1.64-3.6-10.16-21.73-12.55-22.45l-76.8-1.2c-61.68.45-117.89-45.03-174.27-55.73-130.21-24.73-245,149.31-160.22,256.22,38.56,48.62,108.4,54.8,122.71-16.23,2.44-12.1,3.38-54.58,12.68-61.32,3.8-2.75,11.95.17,15.51,2.64,22.55,15.62,4.08,80.83-4.45,102.42-39.64,100.35-156.46,71.1-200.01-8.96-53.69-98.7,12.35-231.81,101.22-285.83,94.15-57.23,149.74,5.68,239.92,17.69,28.27,3.76,77.79,3.49,105.61-2.15,11.07-2.25,7.7-5.2,14.76-11.24,13.2-11.3,31.96-10.99,45.49-.47,23.05,17.92,10.39,39.08,14.82,62.18,3.39,17.68,12.12,37.27,16.62,55.38,12.35,49.63,16.47,97.31-32.25,127.59-52.4,32.57-122.86,37.87-166.51,84.52,6.6,28.33,21.57,53.6,32.31,80.33,26.65,66.32,40.49,129.35,31.41,201.34-4.52,35.8-15.27,71.2-21.87,106.62Z"/>
  <path class="st0" d="M439.37,424.96c3.59,4.14-3.76,14.6-7.82,17.11-6.63,4.09-28.54,6.2-38.12,8.88-83.79,23.4-143.35,102.03-170.8,181.2-10.76,31.02-25.56,93.57-13.28,124.32,1.77,4.44,5.38,5.01,10.04,5.96,29.37,6.02,80.92,4.11,111.75,2.23,22.53-1.38,79.47-6.15,95.98-20.02,26.89-22.59,33.28-73.47,9.5-100.44-11.32-12.84-31.38-17.04-39.81-29.19-5.01-7.23-6.15-11.08,2.84-14.84,31.4-13.13,76.3,29.65,89.52,55.48,17.02,33.25,8.34,63.34,2.49,98.02,24.45-2.72,60.52-13.72,64.91,21.59,4.63,37.19-33.71,42.07-61.38,43.46-99.18,4.99-202.48-3.86-302.09,0-104.08,1.36-193.52-39.74-180.44-158.54,4.85-44.08,20.78-88.02,44-125.5,1.64-.27.93,1.35.99,2.48.45,8.34-1.02,19.49-2.02,28-5.89,50.42-24.88,110.6,5.19,156.84,12.94,19.89,54.12,60.24,77.81,36.17,21.21-21.55,25.34-90.07,33.29-120.71,25.35-97.64,123.54-205.42,227.23-217.77,8.66-1.03,34.3-1.55,40.22,5.28Z"/>
  <path class="st0" d="M593.41,96.95c43.33-4.56,45.16,59.53,5.69,61.73-39.07,2.18-44.88-57.61-5.69-61.73Z"/>
</svg>